HIERARCHY
ROOT Hips
{
	OFFSET 0 0 0
	CHANNELS 6 Xposition Yposition Zposition Yrotation Xrotation Zrotation
	JOINT Spine
	{
		OFFSET -0 8.37147 -2.66841
		CHANNELS 3 Yrotation Xrotation Zrotation
		JOINT Spine1
		{
			OFFSET -0 8.81736 0
			CHANNELS 3 Yrotation Xrotation Zrotation
			JOINT Spine2
			{
				OFFSET -0 8.81736 0
				CHANNELS 3 Yrotation Xrotation Zrotation
				JOINT Spine3
				{
					OFFSET -0 8.81736 0
					CHANNELS 3 Yrotation Xrotation Zrotation
					JOINT Neck
					{
						OFFSET -0 20.2165 3.66841
						CHANNELS 3 Yrotation Xrotation Zrotation
						JOINT Head
						{
							OFFSET -0 10.4643 0
							CHANNELS 3 Yrotation Xrotation Zrotation
							End Site
							{
								OFFSET 0 15 0
							}
						}
					}
					JOINT LeftShoulder
					{
						OFFSET 1.74406 7.24 3.48811
						CHANNELS 3 Yrotation Xrotation Zrotation
						JOINT LeftArm
						{
							OFFSET 15.166 0 0
							CHANNELS 3 Yrotation Xrotation Zrotation
							JOINT LeftForeArm
							{
								OFFSET 25.1836 0 0
								CHANNELS 3 Yrotation Xrotation Zrotation
								JOINT LeftHand
								{
									OFFSET 23.8595 0 0
									CHANNELS 3 Yrotation Xrotation Zrotation
									End Site
									{
										OFFSET 15 0 0
									}
								}
							}
						}
					}
					JOINT RightShoulder
					{
						OFFSET -1.74406 7.24 3.48811
						CHANNELS 3 Yrotation Xrotation Zrotation
						JOINT RightArm
						{
							OFFSET -15.166 0 0
							CHANNELS 3 Yrotation Xrotation Zrotation
							JOINT RightForeArm
							{
								OFFSET -25.1836 0 0
								CHANNELS 3 Yrotation Xrotation Zrotation
								JOINT RightHand
								{
									OFFSET -23.8595 0 0
									CHANNELS 3 Yrotation Xrotation Zrotation
									End Site
									{
										OFFSET -15 0 0
									}
								}
							}
						}
					}
				}
			}
		}
	}
	JOINT LeftUpLeg
	{
		OFFSET 10.4643 -3.48811 2
		CHANNELS 3 Yrotation Xrotation Zrotation
		JOINT LeftLeg
		{
			OFFSET -0 -38.892 2.44168
			CHANNELS 3 Yrotation Xrotation Zrotation
			JOINT LeftFoot
			{
				OFFSET -0 -41.3956 -2.44168
				CHANNELS 3 Yrotation Xrotation Zrotation
				JOINT LeftToeBase
				{
					OFFSET -0 -6.7338 15.6965
					CHANNELS 3 Yrotation Xrotation Zrotation
					End Site
					{
						OFFSET 0 0 5
					}
				}
			}
		}
	}
	JOINT RightUpLeg
	{
		OFFSET -10.4643 -3.48811 2
		CHANNELS 3 Yrotation Xrotation Zrotation
		JOINT RightLeg
		{
			OFFSET -0 -38.892 2.44168
			CHANNELS 3 Yrotation Xrotation Zrotation
			JOINT RightFoot
			{
				OFFSET -0 -41.3956 -2.44168
				CHANNELS 3 Yrotation Xrotation Zrotation
				JOINT RightToeBase
				{
					OFFSET -0 -6.7338 15.6965
					CHANNELS 3 Yrotation Xrotation Zrotation
					End Site
					{
						OFFSET 0 0 5
					}
				}
			}
		}
	}
}
MOTION
Frames: 7
Frame Time: 0.00833333
0 93.707184 0 0 0 0 0 0 0 0 0 0 0 0 0 0 0 0 0 0 0 0 0 0 0 0 0 0 0 0 0 0 0 0 0 0 0 0 0 0 0 0 0 0 0 0 0 0 0 0 0 0 0 0 0 0 0 0 0 0 0 0 0 0 0 0 0 0 0 0 0 0
-87.972614 93.545886 0.184189 -1.523026 1.275480 0.887111 0.264582 0.367641 -0.266001 0.166611 0.038717 -0.370947 -0.185537 -0.124527 -0.352528 -0.284597 -0.244492 -0.165738 3.253238 -10.226534 0.452995 1.908185 -4.164092 -3.689151 14.642722 13.715587 2.453563 -47.452734 4.622902 -61.460072 -16.209001 -5.758803 3.342364 1.972849 -4.164668 -2.562936 -6.715832 -0.767253 -5.330796 29.723528 13.012677 74.831078 18.223719 6.915446 -8.271000 -14.018817 -7.040677 20.624498 6.649715 1.526484 3.602755 0.000000 1.877116 0.000000 3.552363 0.270888 2.088439 0.000000 -5.163222 0.000000 -9.032134 4.688973 -3.164798 0.000000 -2.757199 0.000000 -8.864467 -0.702909 -0.200026 0.000000 -3.250379 0.000000
-87.904742 93.567401 0.196320 -1.554979 1.414025 0.943492 0.315712 0.358439 -0.275864 0.211894 -0.013035 -0.400782 -0.207316 -0.185387 -0.388260 -0.311731 -0.275220 -0.187536 3.256346 -10.622799 0.484770 1.916917 -4.133196 -3.624570 14.715445 13.608324 2.517315 -47.554252 4.664517 -61.587570 -16.122935 -5.581087 3.360185 1.923872 -4.439323 -2.761952 -6.736407 -0.968214 -5.219688 29.629191 13.196317 74.849619 18.235427 7.008142 -8.179547 -14.060866 -7.129821 20.424748 6.718468 1.611893 3.480849 0.000000 1.478900 0.000000 3.521615 0.438648 2.143774 0.000000 -5.118276 0.000000 -9.054075 4.582185 -3.251277 0.000000 -2.857034 0.000000 -8.817721 -0.636863 -0.141486 0.000000 -3.212140 0.000000
-87.845764 93.587994 0.199880 -1.572471 1.557595 0.999024 0.307694 0.348006 -0.374519 0.194388 -0.067561 -0.361973 -0.206144 -0.243062 -0.298426 -0.303985 -0.329304 -0.237300 3.275618 -10.907519 0.333501 1.909750 -4.245295 -3.488555 14.749840 13.605078 2.467198 -47.523561 4.698411 -61.634356 -16.083798 -5.490629 3.307180 1.985165 -4.342095 -2.882337 -6.640953 -1.046759 -5.231180 29.610485 13.315435 74.952671 18.212384 7.270242 -8.276036 -14.010663 -7.197717 20.661194 6.783156 1.707853 3.369507 0.000000 1.034425 0.000000 3.475861 0.638551 2.175724 0.000000 -5.103728 0.000000 -9.038406 4.457939 -3.329753 0.000000 -2.937255 0.000000 -8.821479 -0.563544 -0.073298 0.000000 -3.253396 0.000000
-87.782294 93.605975 0.197538 -1.596824 1.696106 1.047020 0.283432 0.335701 -0.440885 0.167676 -0.116861 -0.351110 -0.173711 -0.298004 -0.248906 -0.270184 -0.386059 -0.233433 3.319030 -11.174125 0.245369 1.924907 -4.276544 -3.437201 14.796454 13.649887 2.416046 -47.557399 4.659701 -61.641682 -15.980038 -5.475077 3.261245 1.971905 -4.125510 -2.918037 -6.579298 -1.070704 -5.240645 29.532719 13.381048 74.954202 18.265621 7.301852 -8.280142 -14.123029 -7.100979 20.800192 6.759438 1.758381 3.258670 0.000000 0.689401 0.000000 3.527563 0.788910 2.196486 0.000000 -5.069743 0.000000 -9.118415 4.318344 -3.399753 0.000000 -2.994632 0.000000 -8.725416 -0.506025 -0.107110 0.000000 -3.218258 0.000000
-87.709351 93.625446 0.187455 -1.618280 1.842107 1.094041 0.267487 0.355390 -0.442731 0.156544 -0.187615 -0.378496 -0.135654 -0.326415 -0.278242 -0.238710 -0.504561 -0.175052 3.308538 -11.452759 0.234516 1.939492 -4.244187 -3.521776 14.751985 13.599297 2.344148 -47.562450 4.775472 -61.747872 -15.963389 -5.425843 3.258641 2.024885 -3.794849 -3.118888 -6.609455 -1.164836 -5.239076 29.550721 13.498231 74.918657 18.257712 7.284117 -8.186689 -14.098877 -7.097857 21.009456 6.838382 1.788397 3.140648 0.000000 0.346805 0.000000 3.482737 0.951765 2.263005 0.000000 -5.033491 0.000000 -9.135543 4.126845 -3.474878 0.000000 -2.972192 0.000000 -8.706936 -0.490156 0.003432 0.000000 -3.144376 0.000000
-87.650842 93.638727 0.182190 -1.651022 1.965115 1.125365 0.265025 0.327223 -0.421919 0.158898 -0.190453 -0.408391 -0.097711 -0.375505 -0.316017 -0.205672 -0.566611 -0.122485 3.268137 -11.711097 0.181639 1.934686 -4.208565 -3.588375 14.651865 13.561512 2.288646 -47.571768 4.895551 -61.836860 -15.981824 -5.273916 3.263279 2.044085 -3.826423 -3.233736 -6.666281 -1.230394 -5.286014 29.503848 13.470795 74.922617 18.215625 7.091017 -8.131435 -13.987637 -6.721799 21.140659 6.883343 1.835391 3.050939 0.000000 0.029063 0.000000 3.480804 1.089802 2.285447 0.000000 -5.028804 0.000000 -9.115398 3.968912 -3.524066 0.000000 -2.951768 0.000000 -8.709015 -0.487651 0.024604 0.000000 -3.098374 0.000000
